<?xml version="1.0" encoding="UTF-8"?>
<svg id="Layer_1" xmlns="http://www.w3.org/2000/svg" version="1.1" viewBox="0 0 107.717 107.717">
  <!-- Generator: Adobe Illustrator 29.5.0, SVG Export Plug-In . SVG Version: 2.1.0 Build 137)  -->
  <path d="M9.764,56.151c4.184.457,12.328.621,19.816-3.457.512-.289,1.125-.336,1.68-.129,2.922,1.113,12.578,4.672,18.387,5.414l1.988,4.422s-2.547,4.844-2.75,9.164c-.008.148.051.297.16.402.113.102.266.148.414.129.805-.129,1.629.016,2.344.414.605.383,1.266.676,1.957.867.066.016.129.016.195,0,.691-.191,1.352-.484,1.957-.867.715-.398,1.539-.543,2.344-.414.148.02.301-.027.414-.129.109-.105.168-.254.16-.402-.203-4.324-2.75-9.164-2.75-9.164l1.988-4.422c5.809-.742,15.465-4.301,18.387-5.414.555-.207,1.168-.16,1.68.129,7.488,4.078,15.637,3.914,19.816,3.457.434-.047.789-.367.883-.793s-.098-.863-.469-1.09c-4.625-2.801-14.73-9.102-19.941-13.793h-.004c-.613-.555-1.512-.664-2.242-.27-3.617,1.938-14.289,7.113-19.293,3.793,0,0-.145-6.301-1.855-7.129l-1.172-2.543-1.172,2.543c-1.715.828-1.855,7.129-1.855,7.129-5.004,3.32-15.676-1.859-19.293-3.793-.73-.395-1.629-.285-2.242.27-5.215,4.691-15.316,10.992-19.941,13.793h-.004c-.371.227-.562.664-.469,1.09s.449.746.883.793h0Z"/>
</svg>