<?xml version="1.0" encoding="UTF-8"?>
<svg id="Layer_1" xmlns="http://www.w3.org/2000/svg" version="1.1" viewBox="0 0 107.717 107.717">
  <!-- Generator: Adobe Illustrator 29.5.0, SVG Export Plug-In . SVG Version: 2.1.0 Build 137)  -->
  <path d="M74.583,36.567c-5.816.736-14.994,5.869-16.78,4.223-1.787-1.647-.281-4.518-.421-7.007v.004c-.137-1.502-1.119-2.796-2.531-3.331l-.994-2.978-.994,2.978c-1.411.535-2.394,1.829-2.531,3.331-.14,2.489,1.366,5.361-.421,7.007-1.787,1.647-10.964-3.49-16.78-4.223-4.917-.626-15.687,26.693-22.899,42.529-.171.372-.038.808.311,1.021.345.212.797.137,1.051-.182,7.398-9.249,20.935-23.415,24.463-25.123,3.889-1.882,12.364.311,12.736,1.916.455,1.961,3.187,5.501,2.068,7.918-1.123,2.417-5.607,10.93-5.395,11.7.209.77,4.276-1.76,4.731-.956.209.368,1.848,2.25,2.861,3.399.201.231.493.364.8.364s.599-.133.8-.364c1.013-1.15,2.656-3.031,2.861-3.399.455-.804,4.518,1.726,4.731.956.209-.77-4.276-9.284-5.395-11.7-1.123-2.417,1.612-5.956,2.068-7.918.372-1.605,8.847-3.798,12.736-1.916,3.532,1.707,17.064,15.878,24.463,25.123.254.319.706.395,1.051.182.345-.212.482-.649.311-1.021-7.212-15.836-17.983-43.155-22.899-42.533h-.001Z"/>
</svg>