<?xml version="1.0" encoding="UTF-8"?>
<svg id="Layer_1" xmlns="http://www.w3.org/2000/svg" version="1.1" viewBox="0 0 107.717 107.717">
  <!-- Generator: Adobe Illustrator 29.5.0, SVG Export Plug-In . SVG Version: 2.1.0 Build 137)  -->
  <path d="M31.115,61.266c1.379.008,2.754.176,4.098.5,3.16.754,9.285,1.961,13.895,1.293,0,0,1.484,8.012,4.75,9.355,3.266-1.344,4.75-9.355,4.75-9.355,4.609.668,10.734-.539,13.895-1.293,1.344-.324,2.719-.492,4.098-.5,12.297,0,19.004-4.625,21.949-7.445.305-.293.391-.742.215-1.129-.172-.383-.57-.613-.992-.578-6.746.605-17.785-1.121-23.703-2.191-2.203-.414-4.484-.129-6.516.82-4.719,2.234-11.316,1.984-11.316,1.984,0,0-1.938-8.438-.762-10.25v-.004c.852-1.312.617-3.047-.555-4.086-.043-.93-.23-1.844-.547-2.719-.078-.219-.285-.367-.516-.367s-.438.148-.516.367c-.316.875-.504,1.789-.547,2.719-1.172,1.039-1.406,2.773-.555,4.086,1.176,1.812-.762,10.25-.762,10.25,0,0-6.594.25-11.316-1.984v.004c-2.031-.949-4.312-1.234-6.516-.82-5.922,1.07-16.961,2.797-23.703,2.191-.422-.035-.82.195-.992.578-.176.387-.09.836.215,1.129,2.945,2.82,9.648,7.445,21.949,7.445h-.002Z"/>
</svg>