<?xml version="1.0" encoding="UTF-8"?>
<svg id="Layer_1" xmlns="http://www.w3.org/2000/svg" version="1.1" viewBox="0 0 107.717 107.717">
  <!-- Generator: Adobe Illustrator 29.5.0, SVG Export Plug-In . SVG Version: 2.1.0 Build 137)  -->
  <defs>
    <style>
      .st0 {
        fill-rule: evenodd;
      }
    </style>
  </defs>
  <path class="st0" d="M46.775,56.808s-13.711,2.351-14.887,1.959c-1.175-.39-2.35-2.351-2.35-2.351,0,0,0-3.918,1.958-4.309,1.958-.392,15.278-1.174,15.278-1.174,0,0-.783-3.527.392-5.487,1.175-1.957.392-5.092.392-5.092,0,0-7.051-8.226-7.834-10.969-.783-2.74,2.349-.392,3.918.392,1.567.784,15.791,10.571,16.061,11.361.271.791-.187,3.035-.187,4.317,0,1.24-.204,2.735,1.363,3.126,1.567.392,3.664-.067,5.145,1.219,1.068.924,1.476,2.975.692,4.151-.242-1.218-1.212-1.131-3.172-.348-.889.197-1.373-.048-1.49.855,1.129,2.373,1.174,2.35,1.174,2.35,0,0,.783,1.959,1.567,3.525.784,1.568-.784,3.135-1.567,5.485-.783,2.35-7.051,18.021-7.051,18.021,0,0-1.307,2.538-2.965,2.538-1.174,0-1.786-2.734-1.786-5.868s2.793-15.081,2.793-15.081c0,0-2.643-3.171-3.558-4.816-.916-1.646-1.536-4.195-1.536-4.195l-2.35.392Z"/>
</svg>