<?xml version="1.0" encoding="UTF-8"?>
<svg id="Layer_1" xmlns="http://www.w3.org/2000/svg" version="1.1" viewBox="0 0 107.717 107.717">
  <!-- Generator: Adobe Illustrator 29.5.0, SVG Export Plug-In . SVG Version: 2.1.0 Build 137)  -->
  <path d="M96.531,36.416h-17.109c-4.624,0-9.156,1.665-12.762,4.624l-8.138,6.659-9.711-8.878c-4.254-3.884-9.711-6.104-15.537-6.381l-22.103-.925c-.185,0-.185.185,0,.277l18.034,5.734c3.977,1.295,7.398,4.069,9.433,7.768l6.566,12.023s-7.306,4.069-14.612,9.063,3.052,10.173,5.364,9.803c2.312-.462,7.491-7.583,9.988-9.433s12.392.462,23.49-2.127c4.624-1.11,8.508-5.826,8.508-5.826l3.607-.555c.185,0,.277-.277.092-.37l-3.237-2.312s-.647-2.682-2.959-3.329c-2.312-.647-3.884.185-3.884.185l.925-2.405c1.942-5.086,6.289-8.878,11.653-10.173l12.485-3.052c.092-.185.092-.37-.092-.37Z"/>
</svg>